{"title":"Sweet Karma 2009 DVDrip English Klam","uid":6629640,"size":1299298319,"categoryP":"video","categoryS":"movies","magnet":"?xt=urn:btih:f53d582ee211595ca7df9d853411123552da9be1&amp;dn=Sweet+Karma+2009+DVDrip+English+Klam&amp;tr=udp%3A%2F%2Ftracker.openbittorrent.com%3A80&amp;tr=udp%3A%2F%2Fopen.demonii.com%3A1337&amp;tr=udp%3A%2F%2Ftracker.coppersurfer.tk%3A6969&amp;tr=udp%3A%2F%2Fexodus.desync.com%3A6969","seeders":2,"leechers":1,"uploader":"Klambake","files":-1,"time":1314283367,"description":"With: Shera Bechard, John Tokatlidis and Frank J. Zupancic\n\nKarma Balint is een stille en verlegen Russische vrouw. Haar zus, Anna, gaat naar Canada om hier geld te verdienen. Karma hoort niks meer van haar; ze stuurt geen geld en ze schrijft ook niet terug. Als Karma erachter komt dat het lichaam van Anna ergens in de bossen rondom Toronto gevonden is, en dat ze waarschijnlijk het slachtoffer is geworden van de Russische maffia, zint zij op wraak.\n\nA mute Russian girl infiltrates Toronto's underground sex trade to avenge the death of her sister. \n\n------------------ Dutch Friends ------------------\nYou can find my Friends at: http://www.Film-Test.nl \n------ They got my dutchs subs ---- and more ------\n\nGeneral:\n\nComplete name                    : Sweet Karma\\Sweet Karma.avi\nFormat                           : AVI\nFormat/Info                      : Audio Video Interleave\nFile size                        : 1.21 GiB\nDuration                         : 1h 26mn\nOverall bit rate                 : 2 014 Kbps\n\nVideo:\n\nFormat                           : MPEG-4 Visual\nFormat profile                   : Simple@L3\nFormat settings, BVOP            : No\nFormat settings, QPel            : No\nFormat settings, GMC             : No warppoints\nFormat settings, Matrix          : Default (H.263)\nCodec ID                         : XVID\nCodec ID/Hint                    : XviD\nDuration                         : 1h 26mn\nBit rate                         : 1 555 Kbps\nWidth                            : 704 pixels\nHeight                           : 396 pixels\nDisplay aspect ratio             : 16:9\nFrame rate                       : 25.000 fps\nColor space                      : YUV\nChroma subsampling               : 4:2:0\nBit depth                        : 8 bits\nScan type                        : Progressive\nBits/(Pixel*Frame)               : 0.223\nStream size                      : 957 MiB (77%)\nWriting library                  : XviD 1.1.2 (UTC 2006-11-01)\n\nAudio:\n\nFormat                           : AC-3\nFormat/Info                      : Audio Coding 3\nMode extension                   : CM (complete main)\nCodec ID                         : 2000\nDuration                         : 1h 26mn\nBit rate mode                    : Constant\nBit rate                         : 448 Kbps\nChannel(s)                       : 6 channels\nChannel positions                : Front: L C R, Side: L R, LFE\nSampling rate                    : 48.0 KHz\nBit depth                        : 16 bits\nStream size                      : 276 MiB (22%)\nAlignment                        : Aligned on interleaves\nInterleave, duration             : 32 ms (0.80 video frame)\nInterleave, preload duration     : 512 ms\n\n","torrent":{"xt":"urn:btih:f53d582ee211595ca7df9d853411123552da9be1","amp;dn":"Sweet+Karma+2009+DVDrip+English+Klam","amp;tr":["udp%3A%2F%2Ftracker.openbittorrent.com%3A80","udp%3A%2F%2Fopen.demonii.com%3A1337","udp%3A%2F%2Ftracker.coppersurfer.tk%3A6969","udp%3A%2F%2Fexodus.desync.com%3A6969"],"infoHash":"f53d582ee211595ca7df9d853411123552da9be1","infoHashBuffer":{"type":"Buffer","data":[245,61,88,46,226,17,89,92,167,223,157,133,52,17,18,53,82,218,155,225]},"announce":[],"urlList":[]}}